<?xml version="1.0" encoding="UTF-8" standalone="no"?>
<!-- Created with Inkscape (http://www.inkscape.org/) -->

<svg
   xmlns:dc="http://purl.org/dc/elements/1.1/"
   xmlns:cc="http://creativecommons.org/ns#"
   xmlns:rdf="http://www.w3.org/1999/02/22-rdf-syntax-ns#"
   xmlns:svg="http://www.w3.org/2000/svg"
   xmlns="http://www.w3.org/2000/svg"
   xmlns:sodipodi="http://sodipodi.sourceforge.net/DTD/sodipodi-0.dtd"
   xmlns:inkscape="http://www.inkscape.org/namespaces/inkscape"
   width="32px"
   height="32px"
   id="svg3005"
   version="1.1"
   inkscape:version="0.48.4 r9939"
   sodipodi:docname="New document 2">
  <defs
     id="defs3007" />
  <sodipodi:namedview
     id="base"
     pagecolor="#ffffff"
     bordercolor="#666666"
     borderopacity="1.0"
     inkscape:pageopacity="0.0"
     inkscape:pageshadow="2"
     inkscape:zoom="11.197802"
     inkscape:cx="16"
     inkscape:cy="16"
     inkscape:current-layer="layer1"
     showgrid="true"
     inkscape:grid-bbox="true"
     inkscape:document-units="px"
     inkscape:window-width="1920"
     inkscape:window-height="1020"
     inkscape:window-x="0"
     inkscape:window-y="0"
     inkscape:window-maximized="1" />
  <metadata
     id="metadata3010">
    <rdf:RDF>
      <cc:Work
         rdf:about="">
        <dc:format>image/svg+xml</dc:format>
        <dc:type
           rdf:resource="http://purl.org/dc/dcmitype/StillImage" />
        <dc:title></dc:title>
      </cc:Work>
    </rdf:RDF>
  </metadata>
  <g
     id="layer1"
     inkscape:label="Layer 1"
     inkscape:groupmode="layer">
    <path
       inkscape:connector-curvature="0"
       d="m 31.999992,22.450942 c 0,0.114187 -0.01206,0.386534 -0.03333,0.81633 -0.04539,0.841153 -0.06951,1.951816 -0.06951,3.336243 V 28 c -2.701477,-0.136173 -7.024267,-0.204259 -12.969789,-0.204259 -0.658879,0 -1.509962,0 -2.553957,0 -1.067398,0 -1.634078,0 -1.701455,0 H 14.43294 c -0.453911,0 -0.680866,-0.107095 -0.680866,-0.323412 0,-0.216317 0.307808,-0.323412 0.919879,-0.323412 0.86172,0 1.383718,-0.102839 1.565991,-0.307098 0.180855,-0.20426 0.272346,-0.794344 0.272346,-1.770252 V 20.170041 H 8.134929 c -2.337639,3.677385 -3.5057495,5.799418 -3.5057495,6.366806 0,0.226246 0.1070946,0.369512 0.3241204,0.425541 0.2148983,0.05674 0.9241337,0.131918 2.1277061,0.221282 0.429796,0.0227 0.646113,0.125535 0.646113,0.307099 0,0.20426 -0.192912,0.307099 -0.578027,0.307099 H 6.80866 c -0.339724,0 -0.9638513,0 -1.8730911,0 -0.9071117,-0.02269 -1.9064245,-0.03404 -2.9951008,-0.03404 -0.8851258,0 -1.4532234,-0.03475 -1.702165,-0.102839 C 0.0787251,27.616309 0,27.536163 0,27.421977 c 0,-0.180856 0.2950419,-0.293624 0.8851258,-0.339724 1.361732,-0.09078 2.2688441,-0.498592 2.723464,-1.225559 0.090782,-0.09078 0.46384,-0.691505 1.1234289,-1.802876 L 13.97832,8.403825 c 0.878033,-1.478756 1.722024,-2.9355251 2.53197,-4.3688899 h 0.61278 1.088676 c 0.726257,0 1.452515,0 2.178063,0 0.521997,0 1.407123,0 2.655377,0 1.135487,0 2.020612,0 2.655378,0 h 3.540503 c 0.385115,0 0.941155,0 1.668122,0 0,0.090073 0.113477,1.4922314 0.340433,4.2100209 l 0.102839,1.245418 c 0.02199,0.112059 0.03405,0.247523 0.03405,0.404264 0,0.246814 -0.10213,0.369512 -0.307099,0.369512 -0.159578,0 -0.260289,-0.126244 -0.307098,-0.378732 -0.317741,-2.045435 -0.901441,-3.423479 -1.753233,-4.1355516 -0.851082,-0.7127816 -2.92205,-1.069527 -6.212902,-1.069527 -1.340455,0 -2.303597,0.012766 -2.89368,0.034752 V 14.894038 h 1.463152 c 2.541191,0 4.0625,-0.340432 4.562511,-1.021298 0.31632,-0.429797 0.51065,-1.213502 0.577318,-2.348988 0.06951,-0.86243 0.20426,-1.293646 0.40852,-1.293646 0.249651,0 0.373767,0.192912 0.373767,0.578736 0,0.135465 -0.02199,0.533346 -0.06808,1.191516 -0.0688,0.999313 -0.102839,1.804295 -0.102839,2.417075 0,2.224162 0.04397,3.903631 0.135464,5.038408 0.02199,0.295042 0.03476,0.487954 0.03476,0.578027 0,0.295751 -0.113477,0.442563 -0.340433,0.442563 -0.159578,0 -0.260998,-0.05036 -0.30639,-0.153195 -0.04539,-0.102839 -0.102839,-0.426251 -0.170216,-0.970234 -0.181565,-1.383718 -0.385824,-2.268844 -0.61207,-2.655377 -0.226967,-0.385115 -0.738326,-0.702853 -1.531961,-0.953213 -0.339723,-0.113478 -1.816352,-0.181564 -4.425628,-0.20426 v 11.53997 c 3.700081,0 6.104388,-0.06808 7.217888,-0.202133 1.520601,-0.202841 2.5419,-0.632638 3.063188,-1.285843 0.408519,-0.541147 0.714909,-1.611383 0.919878,-3.213546 0.06809,-0.541856 0.249651,-0.812784 0.544693,-0.812784 0.230501,0 0.343979,0.295751 0.343979,0.885126 z M 16.511,19.387754 V 5.9122813 C 15.951413,6.927906 15.166289,8.283255 14.159884,9.9762 c -0.775194,1.291518 -1.787982,3.036237 -3.040492,5.235576 -0.658879,1.153926 -1.464571,2.546155 -2.417783,4.175978 H 16.511 z"
       id="path9" />
  </g>
</svg>
